<svg width="22" height="22" viewBox="0 0 22 22" fill="none" xmlns="http://www.w3.org/2000/svg">
<mask id="mask0_223_1452" style="mask-type:alpha" maskUnits="userSpaceOnUse" x="0" y="0" width="22" height="22">
<rect x="0.96875" y="0.685547" width="20.9297" height="20.9297" fill="#D9D9D9"/>
</mask>
<g mask="url(#mask0_223_1452)">
<path d="M10.7795 11.8044H6.41919C6.23387 11.8044 6.07857 11.7417 5.95329 11.6163C5.82785 11.4909 5.76514 11.3355 5.76514 11.1502C5.76514 10.9647 5.82785 10.8094 5.95329 10.6843C6.07857 10.559 6.23387 10.4963 6.41919 10.4963H10.7795V6.13599C10.7795 5.95067 10.8423 5.79537 10.9677 5.67008C11.0931 5.54465 11.2485 5.48193 11.4338 5.48193C11.6193 5.48193 11.7746 5.54465 11.8997 5.67008C12.025 5.79537 12.0876 5.95067 12.0876 6.13599V10.4963H16.448C16.6333 10.4963 16.7886 10.5591 16.9139 10.6845C17.0393 10.8099 17.1021 10.9653 17.1021 11.1506C17.1021 11.3361 17.0393 11.4914 16.9139 11.6165C16.7886 11.7418 16.6333 11.8044 16.448 11.8044H12.0876V16.1648C12.0876 16.3501 12.0249 16.5054 11.8995 16.6307C11.7741 16.7561 11.6187 16.8188 11.4334 16.8188C11.2479 16.8188 11.0926 16.7561 10.9675 16.6307C10.8422 16.5054 10.7795 16.3501 10.7795 16.1648V11.8044Z" fill="#EDEDF7"/>
</g>
</svg>
